<svg id="flat" height="512" viewBox="0 0 512 512" width="512" xmlns="http://www.w3.org/2000/svg"><path d="m352 74.667 32-10.667h24l16 32h-72z" fill="#91591c"/><path d="m288 96h136a64 64 0 0 1 64 64v24a0 0 0 0 1 0 0h-264a0 0 0 0 1 0 0v-24a64 64 0 0 1 64-64z" fill="#e6a565"/><path d="m288 96 32-32h32l16 32z" fill="#b1712c"/><path d="m263.056 140h17.889v16h-17.889z" fill="#a36522" transform="matrix(.894 -.447 .447 .894 -37.472 137.267)"/><path d="m316 121.578h16v28.844h-16z" fill="#a36522" transform="matrix(.555 -.832 .832 .555 31.118 330.145)"/><path d="m383.056 140h17.889v16h-17.889z" fill="#a36522" transform="matrix(.894 -.447 .447 .894 -24.803 190.933)"/><path d="m428 121.578h16v28.844h-16z" fill="#a36522" transform="matrix(.555 -.832 .832 .555 80.992 423.335)"/><path d="m224 360h200a64 64 0 0 1 64 64v24a0 0 0 0 1 0 0h-264a0 0 0 0 1 0 0v-88a0 0 0 0 1 0 0z" fill="#c7894c"/><path d="m224 272h200a64 64 0 0 1 64 64v24a0 0 0 0 1 0 0h-264a0 0 0 0 1 0 0v-88a0 0 0 0 1 0 0z" fill="#e6a565"/><path d="m288 184h136a64 64 0 0 1 64 64v24a0 0 0 0 1 0 0h-264a0 0 0 0 1 0 0v-24a64 64 0 0 1 64-64z" fill="#c7894c"/><path d="m263.056 228h17.889v16h-17.889z" fill="#91591c" transform="matrix(.894 -.447 .447 .894 -76.827 146.557)"/><path d="m316 209.578h16v28.844h-16z" fill="#91591c" transform="matrix(.555 -.832 .832 .555 -42.102 369.331)"/><path d="m383.056 228h17.889v16h-17.889z" fill="#91591c" transform="matrix(.894 -.447 .447 .894 -64.158 200.223)"/><path d="m428 209.578h16v28.844h-16z" fill="#91591c" transform="matrix(.555 -.832 .832 .555 7.771 462.521)"/><path d="m316 297.578h16v28.844h-16z" fill="#a36522" transform="matrix(.555 -.832 .832 .555 -115.323 408.518)"/><path d="m383.056 316h17.889v16h-17.889z" fill="#a36522" transform="matrix(.894 -.447 .447 .894 -103.513 209.513)"/><path d="m428 297.578h16v28.844h-16z" fill="#a36522" transform="matrix(.555 -.832 .832 .555 -65.449 501.707)"/><circle cx="152" cy="320" fill="#f5b97d" r="128"/><path d="m263.056 404h17.889v16h-17.889z" fill="#91591c" transform="matrix(.894 -.447 .447 .894 -155.536 165.138)"/><path d="m316 385.578h16v28.844h-16z" fill="#91591c" transform="matrix(.555 -.832 .832 .555 -188.543 447.704)"/><path d="m383.056 404h17.889v16h-17.889z" fill="#91591c" transform="matrix(.894 -.447 .447 .894 -142.867 218.804)"/><path d="m428 385.578h16v28.844h-16z" fill="#91591c" transform="matrix(.555 -.832 .832 .555 -138.669 540.894)"/><path d="m72 368 24 24 24-16 8-24-32-8z" fill="#a36522"/><path d="m104 288 16 16 24-16v-24h-24z" fill="#b1712c"/><path d="m160 368-8 24 24 24 24-16-8-24z" fill="#b1712c"/><g fill="#a36522"><path d="m63.351 300h25.298v16h-25.298z" transform="matrix(.949 -.316 .316 .949 -93.498 39.839)"/><path d="m160 308.686h16v22.627h-16z" transform="matrix(.707 -.707 .707 .707 -177.068 212.52)"/><path d="m168 240 8 24 24 8 8-24-8-16z"/><path d="m200 300.686h16v22.627h-16z" transform="matrix(.707 -.707 .707 .707 -159.696 238.461)"/><path d="m116.686 216h22.627v16h-22.627z" transform="matrix(.707 -.707 .707 .707 -120.902 156.118)"/></g><path d="m216 344 16-8h16v24h-24z" fill="#91591c"/></svg>